# xmcd
#
# Track frame offsets: 
#        150
#        18687
#        48900
#        63655
#        87045
#        105802
#        128277
#        156640
#        174377
#        187667
#        203405
#        226822
#        244155
#
# Disc length: 3468 seconds
#
# Revision: 3
# Processed by: cddbd v1.5.2PL0 Copyright (c) Steve Scherf et al.
# Submitted via: ExactAudioCopyFreeDBPlugin 1.0
#
DISCID=940d8a0d
DTITLE=The Carvin Jones Band - Unleashed: Burnin' Up the Blues
DYEAR=1998
DGENRE=Blues
TTITLE0=San-Ho-Zay
TTITLE1=Personal Manager
TTITLE2=You So Mean to Me
TTITLE3=Reconsider Baby
TTITLE4=Red Rooster
TTITLE5=Ain't Superstitious
TTITLE6=Heart Fixer
TTITLE7=No Particular Place to Go
TTITLE8=You Lied to Me Baby
TTITLE9=Born Under Bad
TTITLE10=Boom Boom
TTITLE11=Mannish Boy
TTITLE12=That's Us
EXTD=Carvin Jones: guitar, vocals\nTom Feigenbaum: bass\nTodd Jewell: 
EXTD=drums\nProduced by Carvin Jones.\nTee Records CD TR-69732 (1998-0
EXTD=7-01), UPC 642973697322.
EXTT0=(Freddy King)
EXTT1=(Albert King)
EXTT2=(Albert King)
EXTT3=(Lowell Fulson)
EXTT4=(Willie Dixon)
EXTT5=(Willie Dixon)
EXTT6=(Albert King)
EXTT7=(Chuck Berry)
EXTT8=(Carvin Jones)
EXTT9=(Albert King)
EXTT10=(John Lee Hooker)
EXTT11=(Willie Dixon)
EXTT12=(Carvin Jones)
PLAYORDER=
